<mxfile host="app.diagrams.net" modified="2021-01-04T15:34:35.632Z" agent="5.0 (Windows NT 10.0; Win64; x64) AppleWebKit/537.36 (KHTML, like Gecko) Chrome/87.0.4280.88 Safari/537.36" etag="cgPwbBso5IZPyGO4Bbr6" version="14.1.8" type="github">
  <diagram id="C5RBs43oDa-KdzZeNtuy" name="Page-1">
    <mxGraphModel dx="1221" dy="673" grid="1" gridSize="10" guides="1" tooltips="1" connect="1" arrows="1" fold="1" page="1" pageScale="1" pageWidth="827" pageHeight="1169" math="0" shadow="0">
      <root>
        <mxCell id="WIyWlLk6GJQsqaUBKTNV-0" />
        <mxCell id="WIyWlLk6GJQsqaUBKTNV-1" parent="WIyWlLk6GJQsqaUBKTNV-0" />
        <mxCell id="7E5E2imysvAtbNsCE8fg-2" value="&lt;table border=&quot;1&quot; width=&quot;100%&quot; cellpadding=&quot;4&quot; style=&quot;width: 100% ; height: 100% ; border-collapse: collapse&quot;&gt;&lt;tbody&gt;&lt;tr&gt;&lt;th align=&quot;center&quot;&gt;RequestData&lt;/th&gt;&lt;/tr&gt;&lt;tr&gt;&lt;td&gt;+regmsg&amp;nbsp;&lt;/td&gt;&lt;/tr&gt;&lt;tr&gt;&lt;td&gt;+splitGetMethod()&lt;br&gt;+splitGetUrl()&lt;br&gt;+splitGetHttpVersion()&lt;br&gt;+splitGetEntityBody()&lt;/td&gt;&lt;/tr&gt;&lt;/tbody&gt;&lt;/table&gt;" style="text;html=1;strokeColor=none;fillColor=none;overflow=fill;" vertex="1" parent="WIyWlLk6GJQsqaUBKTNV-1">
          <mxGeometry x="240" y="80" width="160" height="140" as="geometry" />
        </mxCell>
        <mxCell id="7E5E2imysvAtbNsCE8fg-10" style="edgeStyle=orthogonalEdgeStyle;rounded=1;orthogonalLoop=1;jettySize=auto;html=1;exitX=0.5;exitY=0;exitDx=0;exitDy=0;entryX=0.5;entryY=1;entryDx=0;entryDy=0;dashed=1;" edge="1" parent="WIyWlLk6GJQsqaUBKTNV-1" source="7E5E2imysvAtbNsCE8fg-3" target="7E5E2imysvAtbNsCE8fg-2">
          <mxGeometry relative="1" as="geometry" />
        </mxCell>
        <mxCell id="7E5E2imysvAtbNsCE8fg-3" value="&lt;table border=&quot;1&quot; width=&quot;100%&quot; cellpadding=&quot;4&quot; style=&quot;width: 100% ; height: 100% ; border-collapse: collapse&quot;&gt;&lt;tbody&gt;&lt;tr&gt;&lt;th align=&quot;center&quot;&gt;HttpClientMessage&lt;/th&gt;&lt;/tr&gt;&lt;tr&gt;&lt;td&gt;-_url&lt;br&gt;-_requestMethod&lt;br&gt;-_httpVersion&lt;br&gt;-_entityBody&lt;br&gt;-_query&amp;nbsp;&lt;/td&gt;&lt;/tr&gt;&lt;tr&gt;&lt;td&gt;+httpGetQueryValue();&lt;br&gt;+httpGetEntityValue();&lt;br&gt;&lt;/td&gt;&lt;/tr&gt;&lt;/tbody&gt;&lt;/table&gt;" style="text;html=1;strokeColor=none;fillColor=none;overflow=fill;" vertex="1" parent="WIyWlLk6GJQsqaUBKTNV-1">
          <mxGeometry x="240" y="320" width="160" height="150" as="geometry" />
        </mxCell>
        <mxCell id="7E5E2imysvAtbNsCE8fg-4" value="&lt;table border=&quot;1&quot; width=&quot;100%&quot; cellpadding=&quot;4&quot; style=&quot;width: 100% ; height: 100% ; border-collapse: collapse&quot;&gt;&lt;tbody&gt;&lt;tr&gt;&lt;th align=&quot;center&quot;&gt;HttpServerMessage&lt;/th&gt;&lt;/tr&gt;&lt;tr&gt;&lt;td&gt;-_httpVersion&lt;br&gt;-_stateCode&lt;br&gt;-_contentType&lt;br&gt;-_contentLenght&lt;br&gt;-_body&amp;nbsp;&lt;/td&gt;&lt;/tr&gt;&lt;tr&gt;&lt;td&gt;+responceMessage()&lt;/td&gt;&lt;/tr&gt;&lt;/tbody&gt;&lt;/table&gt;" style="text;html=1;strokeColor=none;fillColor=none;overflow=fill;" vertex="1" parent="WIyWlLk6GJQsqaUBKTNV-1">
          <mxGeometry x="480" y="320" width="160" height="150" as="geometry" />
        </mxCell>
        <mxCell id="7E5E2imysvAtbNsCE8fg-11" style="edgeStyle=orthogonalEdgeStyle;rounded=0;orthogonalLoop=1;jettySize=auto;html=1;exitX=0;exitY=0.5;exitDx=0;exitDy=0;entryX=1;entryY=0.5;entryDx=0;entryDy=0;dashed=1;" edge="1" parent="WIyWlLk6GJQsqaUBKTNV-1" source="7E5E2imysvAtbNsCE8fg-5" target="7E5E2imysvAtbNsCE8fg-3">
          <mxGeometry relative="1" as="geometry" />
        </mxCell>
        <mxCell id="7E5E2imysvAtbNsCE8fg-14" style="edgeStyle=orthogonalEdgeStyle;rounded=0;orthogonalLoop=1;jettySize=auto;html=1;exitX=1;exitY=0.5;exitDx=0;exitDy=0;entryX=0;entryY=0.5;entryDx=0;entryDy=0;dashed=1;" edge="1" parent="WIyWlLk6GJQsqaUBKTNV-1" source="7E5E2imysvAtbNsCE8fg-5" target="7E5E2imysvAtbNsCE8fg-6">
          <mxGeometry relative="1" as="geometry" />
        </mxCell>
        <mxCell id="7E5E2imysvAtbNsCE8fg-5" value="&lt;table border=&quot;1&quot; width=&quot;100%&quot; cellpadding=&quot;4&quot; style=&quot;width: 100% ; height: 100% ; border-collapse: collapse&quot;&gt;&lt;tbody&gt;&lt;tr&gt;&lt;th align=&quot;center&quot;&gt;HttpRequestHandler&lt;/th&gt;&lt;/tr&gt;&lt;tr&gt;&lt;td&gt;&lt;br&gt;&lt;/td&gt;&lt;/tr&gt;&lt;tr&gt;&lt;td&gt;&lt;u&gt;getRequestBuild()&lt;/u&gt;&lt;br&gt;&lt;u&gt;postRequestBuild()&lt;/u&gt;&lt;/td&gt;&lt;/tr&gt;&lt;/tbody&gt;&lt;/table&gt;" style="text;html=1;strokeColor=none;fillColor=none;overflow=fill;" vertex="1" parent="WIyWlLk6GJQsqaUBKTNV-1">
          <mxGeometry x="480" y="80" width="160" height="140" as="geometry" />
        </mxCell>
        <mxCell id="7E5E2imysvAtbNsCE8fg-13" style="edgeStyle=orthogonalEdgeStyle;rounded=0;orthogonalLoop=1;jettySize=auto;html=1;exitX=0.5;exitY=1;exitDx=0;exitDy=0;dashed=1;" edge="1" parent="WIyWlLk6GJQsqaUBKTNV-1" source="7E5E2imysvAtbNsCE8fg-6" target="7E5E2imysvAtbNsCE8fg-4">
          <mxGeometry relative="1" as="geometry" />
        </mxCell>
        <mxCell id="7E5E2imysvAtbNsCE8fg-6" value="&lt;table border=&quot;1&quot; width=&quot;100%&quot; cellpadding=&quot;4&quot; style=&quot;width: 100% ; height: 100% ; border-collapse: collapse&quot;&gt;&lt;tbody&gt;&lt;tr&gt;&lt;th align=&quot;center&quot;&gt;HttpResponceHandler&lt;/th&gt;&lt;/tr&gt;&lt;tr&gt;&lt;td&gt;&lt;br&gt;&lt;/td&gt;&lt;/tr&gt;&lt;tr&gt;&lt;td&gt;&lt;u&gt;httpMainResponce()&lt;/u&gt;&lt;br&gt;&lt;u&gt;httpProfileResponce()&lt;br&gt;httpCalculatorResponce()&lt;/u&gt;&lt;/td&gt;&lt;/tr&gt;&lt;/tbody&gt;&lt;/table&gt;" style="text;html=1;strokeColor=none;fillColor=none;overflow=fill;" vertex="1" parent="WIyWlLk6GJQsqaUBKTNV-1">
          <mxGeometry x="720" y="75" width="160" height="150" as="geometry" />
        </mxCell>
      </root>
    </mxGraphModel>
  </diagram>
</mxfile>
